<mxfile host="app.diagrams.net" modified="2022-03-31T15:47:02.911Z" agent="5.0 (Windows NT 10.0; Win64; x64) AppleWebKit/537.36 (KHTML, like Gecko) Chrome/99.0.4844.74 Safari/537.36 Edg/99.0.1150.55" etag="tFWhfmnHSWkqLL37qNhi" version="17.2.5" type="github">
  <diagram id="PHL2i_q6lvD1pddD_RMk" name="Page-1">
    <mxGraphModel dx="1038" dy="579" grid="1" gridSize="10" guides="1" tooltips="1" connect="1" arrows="1" fold="1" page="1" pageScale="1" pageWidth="850" pageHeight="1100" math="0" shadow="0">
      <root>
        <mxCell id="0" />
        <mxCell id="1" parent="0" />
        <mxCell id="XoWIb80hP6ljI6C5bqsF-3" value="" style="edgeStyle=orthogonalEdgeStyle;rounded=0;orthogonalLoop=1;jettySize=auto;html=1;" edge="1" parent="1" source="XoWIb80hP6ljI6C5bqsF-1" target="XoWIb80hP6ljI6C5bqsF-2">
          <mxGeometry relative="1" as="geometry" />
        </mxCell>
        <mxCell id="XoWIb80hP6ljI6C5bqsF-1" value="Game server" style="rounded=1;whiteSpace=wrap;html=1;" vertex="1" parent="1">
          <mxGeometry x="320" y="20" width="120" height="60" as="geometry" />
        </mxCell>
        <mxCell id="XoWIb80hP6ljI6C5bqsF-8" value="" style="edgeStyle=orthogonalEdgeStyle;rounded=0;orthogonalLoop=1;jettySize=auto;html=1;" edge="1" parent="1" source="XoWIb80hP6ljI6C5bqsF-2" target="XoWIb80hP6ljI6C5bqsF-5">
          <mxGeometry relative="1" as="geometry">
            <Array as="points">
              <mxPoint x="160" y="220" />
              <mxPoint x="160" y="220" />
            </Array>
          </mxGeometry>
        </mxCell>
        <mxCell id="XoWIb80hP6ljI6C5bqsF-11" value="" style="edgeStyle=orthogonalEdgeStyle;rounded=0;orthogonalLoop=1;jettySize=auto;html=1;entryX=0.5;entryY=0;entryDx=0;entryDy=0;" edge="1" parent="1" source="XoWIb80hP6ljI6C5bqsF-2" target="XoWIb80hP6ljI6C5bqsF-10">
          <mxGeometry relative="1" as="geometry">
            <mxPoint x="300" y="170" as="targetPoint" />
          </mxGeometry>
        </mxCell>
        <mxCell id="XoWIb80hP6ljI6C5bqsF-2" value="Simulation" style="rounded=1;whiteSpace=wrap;html=1;" vertex="1" parent="1">
          <mxGeometry x="100" y="140" width="120" height="60" as="geometry" />
        </mxCell>
        <mxCell id="XoWIb80hP6ljI6C5bqsF-9" value="" style="edgeStyle=orthogonalEdgeStyle;rounded=0;orthogonalLoop=1;jettySize=auto;html=1;" edge="1" parent="1" source="XoWIb80hP6ljI6C5bqsF-5" target="XoWIb80hP6ljI6C5bqsF-2">
          <mxGeometry relative="1" as="geometry" />
        </mxCell>
        <mxCell id="XoWIb80hP6ljI6C5bqsF-5" value="Client 1" style="rounded=1;whiteSpace=wrap;html=1;" vertex="1" parent="1">
          <mxGeometry x="100" y="260" width="120" height="60" as="geometry" />
        </mxCell>
        <mxCell id="XoWIb80hP6ljI6C5bqsF-10" value="Client 2" style="rounded=1;whiteSpace=wrap;html=1;" vertex="1" parent="1">
          <mxGeometry x="250" y="260" width="120" height="60" as="geometry" />
        </mxCell>
      </root>
    </mxGraphModel>
  </diagram>
</mxfile>
